# xmcd
#
# Track frame offsets: 
#        150
#        14324
#        35084
#        58934
#        76904
#        90854
#        107654
#        123524
#        140834
#        155234
#        170114
#        184039
#        197382
#        209952
#        228492
#        246012
#        258732
#        268631
#        281021
#        294191
#        304121
#        316061
#        328961
#        339161
#
# Disc length: 4768 seconds
#
# Revision: 0
# Processed by: cddbd v1.5.2PL0 Copyright (c) Steve Scherf et al.
# Submitted via: ExactAudioCopy v1.2
#
DISCID=69129e18
DTITLE=Leo 'Bud' Welch - Live at the Iridium
DYEAR=2017
DGENRE=Blues
TTITLE0=Praise His Name (Live)
TTITLE1=Still A Fool (Live)
TTITLE2=Got My Mojo Working (Live)
TTITLE3=Five Long Years (Live)
TTITLE4=No More Doggin' (Live)
TTITLE5=Woke Up This Morning (Live)
TTITLE6=My Babe (Live)
TTITLE7=Sweet Little Angel (Live)
TTITLE8=Cadillac Baby (Live)
TTITLE9=Po Boy (Live)
TTITLE10=You Don't Have To Go (Live)
TTITLE11=Pepticon (Live)
TTITLE12=Don't Let The Devil Ride (Live)
TTITLE13=Rollin' and Tumblin' (Live)
TTITLE14=Good Morning, Little School Girl (Live)
TTITLE15=Walkin' The Floor Over You (Live)
TTITLE16=Me And My Lord (Live)
TTITLE17=Sweet Home Chicago (Live)
TTITLE18=Dust My Broom (Live)
TTITLE19=If You Don't Like My Peaches (Live)
TTITLE20=3 O'clock Blues (Live)
TTITLE21=Country Road (Live)
TTITLE22=Hi-Heel Sneakers (Live)
TTITLE23=A Long Journey (Live)
EXTD=
EXTT0=
EXTT1=
EXTT2=
EXTT3=
EXTT4=
EXTT5=
EXTT6=
EXTT7=
EXTT8=
EXTT9=
EXTT10=
EXTT11=
EXTT12=
EXTT13=
EXTT14=
EXTT15=
EXTT16=
EXTT17=
EXTT18=
EXTT19=
EXTT20=
EXTT21=
EXTT22=
EXTT23=
PLAYORDER=
